<svg xmlns="http://www.w3.org/2000/svg" viewBox="0 0 512 512" overflow="visible">
  <g transform="translate(0, 448) scale(1, -1)">
    <path d="M0 192C0 51 115 -64 256 -64C397 -64 512 51 512 192C512 225 506 257 494 286C484 276 474 266 464 256C427 256 389 256 352 256V224L384 192V128H352V80L304 32H256V128H160C160 157 160 187 160 216L200 256C229 256 259 256 288 256C309 277 331 299 352 320C320 320 288 320 256 320C245 309 235 299 224 288C213 288 203 288 192 288C192 320 192 352 192 384C178 398 164 412 151 425C62 385 0 296 0 192Z" opacity="0.4" fill="#6B6560"/>
  </g>
  <g transform="translate(0, 448) scale(1, -1)">
    <path d="M160 216V128H256V32H304L352 80V128H384V192L352 224V256H464L494 286C457 381 364 448 256 448C218 448 183 440 151 425L192 384V288H224L256 320H352L288 256H200L160 216Z" opacity="1" fill="#D6D3D1"/>
  </g>
</svg>
